<svg id="Layer_1" data-name="Layer 1" xmlns="http://www.w3.org/2000/svg" viewBox="0 0 306.92 295.01"><defs><style>.cls-1,.cls-2{fill:#b0dbff;}.cls-1{opacity:0.2;}.cls-3{fill:#6ab4fc;}.cls-4{fill:#211c50;}.cls-5{fill:#fff;}.cls-6{fill:#fdaf42;}</style></defs><path class="cls-1" d="M306.83,111.39c-1-13.92-10.73-25.64-24-29.95-18.81-6.08-55.16-21.3-64.4-50C207.88-1.24,107.48-19,59.33,31.91c-13.26,14-20.55,32.59-21.4,51.87-.63,14.54-3.83,38.08-17,52.44C7,151.32-.93,171,.09,191.49c1.7,34,18.14,74.78,87.54,73.26A148.39,148.39,0,0,1,164,284l2.34,1.34c53,30.73,117.69-16.73,103.79-76.39-.29-1.27-.61-2.56-1-3.86a81.26,81.26,0,0,1-2.7-18.46c-.27-10.23,1.44-22.95,10.52-28a38.94,38.94,0,0,0,5.15-3.27C289.85,149.44,308.31,132.76,306.83,111.39Z"/><circle class="cls-1" cx="288.9" cy="183.22" r="13.49"/><rect class="cls-2" x="28.82" y="239.81" width="7.75" height="52.37" rx="3.11"/><rect class="cls-2" x="270.04" y="239.72" width="7.75" height="52.37" rx="3.11"/><rect class="cls-2" x="242.39" y="239.46" width="7.75" height="29.81" rx="3.11"/><rect class="cls-2" x="66.35" y="265.77" width="7.75" height="7.75" rx="3.11"/><rect class="cls-2" x="66.35" y="243.98" width="7.75" height="17.3" rx="3.11"/><rect class="cls-3" x="31.47" y="60.05" width="245.41" height="166.66" rx="0.86"/><path class="cls-4" d="M275.65,225.49h-243V132.8a1.22,1.22,0,0,0-1.22-1.22h0a1.21,1.21,0,0,0-1.22,1.22V226a1.92,1.92,0,0,0,1.92,1.92h244A1.92,1.92,0,0,0,278.1,226V195.9a1.23,1.23,0,0,0-1.22-1.23h0a1.23,1.23,0,0,0-1.23,1.23Z"/><path class="cls-4" d="M32.69,61.27h243V187.54a1.23,1.23,0,0,0,1.23,1.23h0a1.23,1.23,0,0,0,1.22-1.23V60.75a1.92,1.92,0,0,0-1.92-1.92h-244a1.92,1.92,0,0,0-1.92,1.92v48.84a1.22,1.22,0,0,0,1.22,1.22h0a1.22,1.22,0,0,0,1.22-1.22Z"/><rect class="cls-4" x="30.25" y="116.72" width="2.44" height="8.95" rx="1.22"/><rect class="cls-5" x="39.53" y="68.66" width="229.28" height="149.44" rx="0.86"/><path class="cls-4" d="M268.12,219.32H40.23a1.92,1.92,0,0,1-1.92-1.92v-148a1.92,1.92,0,0,1,1.92-1.92H268.12A1.92,1.92,0,0,1,270,69.36v148A1.92,1.92,0,0,1,268.12,219.32ZM40.75,216.88H267.59v-147H40.75Z"/><rect class="cls-2" x="46.59" y="79.33" width="8.15" height="2.85" rx="1.14"/><rect class="cls-2" x="46.59" y="95.63" width="8.15" height="2.85" rx="1.14"/><rect class="cls-2" x="46.59" y="112.34" width="8.15" height="2.85" rx="1.14"/><rect class="cls-2" x="46.59" y="128.72" width="8.15" height="2.85" rx="1.14"/><rect class="cls-2" x="46.59" y="145.57" width="8.15" height="2.85" rx="1.14"/><rect class="cls-2" x="46.59" y="164.09" width="8.15" height="2.85" rx="1.14"/><rect class="cls-2" x="46.59" y="182.02" width="8.15" height="2.85" rx="1.14"/><rect class="cls-2" x="46.59" y="201.08" width="8.15" height="2.85" rx="1.14"/><rect class="cls-2" x="66.15" y="207.6" width="8.15" height="2.85" rx="1.14" transform="translate(-138.8 279.26) rotate(-90)"/><rect class="cls-2" x="84.9" y="207.6" width="8.15" height="2.85" rx="1.14" transform="translate(-120.06 298) rotate(-90)"/><rect class="cls-2" x="103.64" y="207.6" width="8.15" height="2.85" rx="1.14" transform="translate(-101.31 316.75) rotate(-90)"/><rect class="cls-2" x="122.39" y="207.6" width="8.15" height="2.85" rx="1.14" transform="translate(-82.57 335.49) rotate(-90)"/><rect class="cls-2" x="142.97" y="207.6" width="8.15" height="2.85" rx="1.14" transform="translate(-61.99 356.07) rotate(-90)"/><rect class="cls-2" x="163.55" y="207.6" width="8.15" height="2.85" rx="1.14" transform="translate(-41.41 376.65) rotate(-90)"/><rect class="cls-2" x="184.12" y="207.6" width="8.15" height="2.85" rx="1.14" transform="translate(-20.83 397.23) rotate(-90)"/><rect class="cls-2" x="204.7" y="207.6" width="8.15" height="2.85" rx="1.14" transform="translate(-0.25 417.81) rotate(-90)"/><rect class="cls-2" x="225.28" y="207.6" width="8.15" height="2.85" rx="1.14" transform="translate(20.33 438.39) rotate(-90)"/><rect class="cls-2" x="245.86" y="207.6" width="8.15" height="2.85" rx="1.14" transform="translate(40.9 458.97) rotate(-90)"/><path class="cls-4" d="M68.8,184.67a1.23,1.23,0,0,1-.81-2.14l20-17.74,14.15-35.1a1.23,1.23,0,0,1,1.14-.76H147a1.23,1.23,0,0,1,.78.27l19.57,16,19.82-27.69a1.22,1.22,0,1,1,2,1.43l-20.58,28.75a1.23,1.23,0,0,1-.83.5,1.25,1.25,0,0,1-.93-.27l-20.24-16.57H104.06l-14,34.6a1.23,1.23,0,0,1-.32.46L69.61,184.36A1.24,1.24,0,0,1,68.8,184.67Z"/><circle class="cls-6" cx="68.8" cy="183.44" r="4.48"/><circle class="cls-6" cx="88.97" cy="165.51" r="4.48"/><circle class="cls-6" cx="103.24" cy="130.15" r="4.48"/><circle class="cls-6" cx="126.46" cy="130.15" r="4.48"/><circle class="cls-6" cx="147.04" cy="130.15" r="4.48"/><circle class="cls-6" cx="167.62" cy="146.99" r="4.48"/><circle class="cls-6" cx="188.2" cy="118.24" r="4.48"/><rect class="cls-3" x="236.69" y="80.88" width="19.15" height="3.11" rx="1.25"/><rect class="cls-3" x="236.69" y="87.35" width="19.15" height="3.11" rx="1.25"/><rect class="cls-3" x="236.69" y="93.81" width="19.15" height="3.11" rx="1.25"/></svg>