<svg id="Icon_Set" data-name="Icon Set" xmlns="http://www.w3.org/2000/svg" viewBox="0 0 464 440"><defs><style>.cls-1{fill:#99a2b9;}.cls-2{fill:#211c50;}.cls-3{fill:#b7c0d7;}.cls-4{fill:#fdaf42;}.cls-5{fill:#212a41;}.cls-6{fill:#ffca4d;}.cls-7{fill:#fff;}.cls-8{fill:#db8e11;}</style></defs><path class="cls-1" d="M365,472H61a8,8,0,0,1-8-8V168H373V464A8,8,0,0,1,365,472Z" transform="translate(-28 -36)"/><path class="cls-2" d="M352,476H48a12,12,0,0,1-12-12V168a4,4,0,0,1,4-4H360a4,4,0,0,1,4,4V464A12,12,0,0,1,352,476ZM44,172V464a4,4,0,0,0,4,4H352a4,4,0,0,0,4-4V172Z" transform="translate(-28 -36)"/><path class="cls-1" d="M372,168H52a8,8,0,0,1-8-8V96a8,8,0,0,1,8-8H372a8,8,0,0,1,8,8v64A8,8,0,0,1,372,168Z" transform="translate(-28 -36)"/><path class="cls-2" d="M360,172H40a12,12,0,0,1-12-12V96A12,12,0,0,1,40,84H360a12,12,0,0,1,12,12v64A12,12,0,0,1,360,172ZM40,92a4,4,0,0,0-4,4v64a4,4,0,0,0,4,4H360a4,4,0,0,0,4-4V96a4,4,0,0,0-4-4Z" transform="translate(-28 -36)"/><path class="cls-3" d="M476,472H172a8,8,0,0,1-8-8V168H484V464A8,8,0,0,1,476,472Z" transform="translate(-28 -36)"/><path class="cls-2" d="M464,476H160a12,12,0,0,1-12-12V168a4,4,0,0,1,4-4H472a4,4,0,0,1,4,4V464A12,12,0,0,1,464,476ZM156,172V464a4,4,0,0,0,4,4H464a4,4,0,0,0,4-4V172Z" transform="translate(-28 -36)"/><path class="cls-3" d="M484,168H164a8,8,0,0,1-8-8V96a8,8,0,0,1,8-8H484a8,8,0,0,1,8,8v64A8,8,0,0,1,484,168Z" transform="translate(-28 -36)"/><path class="cls-2" d="M472,172H152a12,12,0,0,1-12-12V96a12,12,0,0,1,12-12H472a12,12,0,0,1,12,12v64A12,12,0,0,1,472,172ZM152,92a4,4,0,0,0-4,4v64a4,4,0,0,0,4,4H472a4,4,0,0,0,4-4V96a4,4,0,0,0-4-4Z" transform="translate(-28 -36)"/><path class="cls-4" d="M331.24,237.49l20.61,43.91a8,8,0,0,0,6,4.51l46.73,7.14a8,8,0,0,1,4.52,13.49L374.82,341.7a8,8,0,0,0-2.16,6.88l8,49.22a8,8,0,0,1-11.77,8.29l-41-22.69a8,8,0,0,0-7.74,0l-41,22.69a8,8,0,0,1-11.77-8.29l8-49.22a8,8,0,0,0-2.17-6.88l-34.3-35.16a8,8,0,0,1,4.52-13.49l46.73-7.14a8,8,0,0,0,6-4.51l20.61-43.91a8,8,0,0,1,14.46,0Z" transform="translate(-28 -36)"/><path class="cls-5" d="M360.79,411.1a11.88,11.88,0,0,1-5.81-1.51l-41-22.69a4,4,0,0,0-3.88,0l-41,22.69a12,12,0,0,1-17.64-12.43l8-49.22a4,4,0,0,0-1.09-3.44L224,309.33a12,12,0,0,1,6.77-20.24L277.5,282a4,4,0,0,0,3-2.25l20.61-43.92a12,12,0,0,1,21.73,0l20.6,43.92a4,4,0,0,0,3,2.25l46.73,7.14A12,12,0,0,1,400,309.33L365.67,344.5a4,4,0,0,0-1.09,3.44l8,49.21a12,12,0,0,1-11.83,14ZM312,236.89a4,4,0,0,0-3.62,2.3L287.77,283.1a12,12,0,0,1-9.06,6.76L232,297a4,4,0,0,0-2.26,6.75l34.31,35.17a12,12,0,0,1,3.25,10.31l-8,49.23a4,4,0,0,0,5.89,4.14l41-22.69a12,12,0,0,1,11.61,0l41,22.69a4,4,0,0,0,5.89-4.14l-8-49.23A12.09,12.09,0,0,1,360,338.92l34.31-35.17A4,4,0,0,0,392,297l-46.72-7.14a11.94,11.94,0,0,1-9.05-6.76l-20.61-43.91a4,4,0,0,0-3.63-2.3Z" transform="translate(-28 -36)"/><path class="cls-6" d="M249.19,310.51a4,4,0,0,1-.61-7.95l31.34-4.78A19.94,19.94,0,0,0,295,286.5L308.38,258a4,4,0,0,1,7.24,3.4L302.25,289.9a28,28,0,0,1-21.12,15.79l-31.34,4.78a4,4,0,0,1-.6,0Z" transform="translate(-28 -36)"/><path class="cls-7" d="M450,208H370V112l40-32,40,32Z" transform="translate(-28 -36)"/><path class="cls-2" d="M440,212H360a4,4,0,0,1-4-4V112a4,4,0,0,1,1.5-3.13l40-32a4,4,0,0,1,5,0l40,32A4,4,0,0,1,444,112v96A4,4,0,0,1,440,212Zm-76-8h72V113.92l-36-28.8-36,28.8Z" transform="translate(-28 -36)"/><path class="cls-2" d="M400,108a4,4,0,0,1-4-4V72a28,28,0,0,0-56,0V88a4,4,0,0,1-8,0V72a36,36,0,0,1,72,0v32A4,4,0,0,1,400,108Z" transform="translate(-28 -36)"/><path class="cls-2" d="M416,188H384a4,4,0,0,1,0-8h32a4,4,0,0,1,0,8Z" transform="translate(-28 -36)"/><circle class="cls-4" cx="372" cy="104" r="16"/><path class="cls-2" d="M400,160a20,20,0,1,1,20-20A20,20,0,0,1,400,160Zm0-32a12,12,0,1,0,12,12A12,12,0,0,0,400,128Z" transform="translate(-28 -36)"/><path class="cls-8" d="M350.23,388.12a4,4,0,0,1-1.93-.5l-26.62-14.71a4,4,0,1,1,3.86-7L345,376.64l-4.05-24.83a4,4,0,0,1,7.9-1.29l5.38,33a4,4,0,0,1-3.95,4.64Z" transform="translate(-28 -36)"/></svg>