<svg id="Layer_1" data-name="Layer 1" xmlns="http://www.w3.org/2000/svg" viewBox="0 0 453.1 308.36"><defs><style>.cls-1{fill:#ccd1d9;}.cls-2{fill:#e6e9ed;}.cls-3{fill:#f85e5a;}.cls-4{fill:#211c50;}.cls-5{fill:#6ab4fc;}.cls-6{fill:#b0dbff;}.cls-7{fill:#fff;}.cls-8{fill:#fdd442;}.cls-9{fill:#fdaf42;}</style></defs><path class="cls-1" d="M375.2,206.3a39.18,39.18,0,0,0-39,39h78.1a39.18,39.18,0,0,0-39-39" transform="translate(0 -0.04)"/><path class="cls-1" d="M86.2,206.3a39.18,39.18,0,0,0-39,39h78.1a38.94,38.94,0,0,0-39.1-39" transform="translate(0 -0.04)"/><path class="cls-2" d="M406.2,199a47,47,0,0,0-46.9,46.9c0-17.2-4.4-39-31.2-39a31.24,31.24,0,0,0-31.2,31.2c0,17.2-10.6,27.6-29.5,31.5-19.5,4.1-20.8,3.9-40.4,3.8-19.2-.1-21.7.3-42-3-19-3.1-28.5-15.2-28.5-32.3a31.28,31.28,0,0,0-31.3-31.3c-22.7,0-31.2,21.9-31.2,39a47,47,0,0,0-94,0v62.6H453.1V245.9A47,47,0,0,0,406.2,199" transform="translate(0 -0.04)"/><g id="Layer_2" data-name="Layer 2"><g id="Layer_1-2" data-name="Layer 1-2"><path class="cls-3" d="M204.1,158.7H256v7.1a5.7,5.7,0,0,1-5.7,5.7H209.8a5.7,5.7,0,0,1-5.7-5.7Z" transform="translate(0 -0.04)"/><path class="cls-4" d="M246,172.5H205.5a6.7,6.7,0,0,1-6.7-6.7h0v-8.1h54v8.1a6.85,6.85,0,0,1-6.8,6.7Zm-45.1-12.8v6a4.65,4.65,0,0,0,4.6,4.6H246a4.65,4.65,0,0,0,4.6-4.6v-6Z" transform="translate(0 -0.04)"/><path class="cls-5" d="M193.4,111.3l-31.9,29a5.37,5.37,0,0,0-.3,7.6,5.22,5.22,0,0,0,3.9,1.7h28.3Z" transform="translate(0 -0.04)"/><path class="cls-6" d="M232.4,3.1h0a7.53,7.53,0,0,0-9.3-1.2,6.09,6.09,0,0,1,1.5,1.2h0c21.9,23.3,33.9,52.3,33.9,82v65.1c0,8-7.7,14.5-17.1,14.5h7.8c9.4,0,17.1-6.5,17.1-14.5h0V85.1C266.2,55.3,254.3,26.4,232.4,3.1Z" transform="translate(0 -0.04)"/><path class="cls-7" d="M258.4,150.3V85.2c0-29.8-11.9-58.7-33.9-82h0A9.83,9.83,0,0,0,223,2a7.55,7.55,0,0,0-1.4,1.1h0c-21.9,23.3-33.9,52.3-33.9,82v65.1c0,8,7.7,14.5,17.1,14.5h36.4c9.5.1,17.2-6.5,17.2-14.4Z" transform="translate(0 -0.04)"/><path class="cls-5" d="M270.2,111.3l31.9,29a5.47,5.47,0,0,1,.4,7.6,5.28,5.28,0,0,1-4,1.7H270.2Z" transform="translate(0 -0.04)"/><path class="cls-4" d="M294.5,150.6H265.1V108.9l33.7,30.6a6.47,6.47,0,0,1,.4,9.1,6.74,6.74,0,0,1-4.7,2Zm-27.2-2.2h27.2a4.25,4.25,0,0,0,4.3-4.2,4.31,4.31,0,0,0-1.4-3.2l-30.1-27.4Z" transform="translate(0 -0.04)"/><path class="cls-8" d="M222.5,211.9h0a19.62,19.62,0,0,1,.3-27.8,18.84,18.84,0,0,1,11.1-5.4,19.57,19.57,0,0,0-21.8,17,20,20,0,0,0,5.4,16.1h0l.1.1.1.1,13.8,14,2.5-2.5-11.5-11.6Z" transform="translate(0 -0.04)"/><path class="cls-9" d="M246.5,210.5h0a19.64,19.64,0,0,0-2.6-27.6,18.75,18.75,0,0,0-10-4.3A19.58,19.58,0,0,0,217,200.5a18.84,18.84,0,0,0,5.4,11.1h0l.1.1.1.1,11.3,11.5,10.3-10.5A12.51,12.51,0,0,0,246.5,210.5Z" transform="translate(0 -0.04)"/><circle class="cls-6" cx="229.1" cy="96.26" r="18.8"/><path class="cls-6" d="M156.3,159.7h0a3.37,3.37,0,0,1,3.4,3.4h0V202a3.37,3.37,0,0,1-3.4,3.4h0a3.37,3.37,0,0,1-3.4-3.4h0V163.1a3.66,3.66,0,0,1,3.4-3.4Z" transform="translate(0 -0.04)"/><path class="cls-6" d="M297.6,159.7h0a3.37,3.37,0,0,1,3.4,3.4h0V202a3.37,3.37,0,0,1-3.4,3.4h0a3.37,3.37,0,0,1-3.4-3.4h0V163.1a3.66,3.66,0,0,1,3.4-3.4Z" transform="translate(0 -0.04)"/><path class="cls-6" d="M173.2,159.5h0a3.37,3.37,0,0,1,3.4,3.4v19.2a3.37,3.37,0,0,1-3.4,3.4h0a3.37,3.37,0,0,1-3.4-3.4V162.9A3.37,3.37,0,0,1,173.2,159.5Z" transform="translate(0 -0.04)"/><path class="cls-6" d="M278.3,178.7h0a3.37,3.37,0,0,1,3.4,3.4h0a3.37,3.37,0,0,1-3.4,3.4h0a3.37,3.37,0,0,1-3.4-3.4h0a3.37,3.37,0,0,1,3.4-3.4Z" transform="translate(0 -0.04)"/><path class="cls-6" d="M278.3,159.7h0a3.37,3.37,0,0,1,3.4,3.4h0v8.3a3.37,3.37,0,0,1-3.4,3.4h0a3.37,3.37,0,0,1-3.4-3.4h0v-8.3a3.37,3.37,0,0,1,3.4-3.4Z" transform="translate(0 -0.04)"/><path class="cls-4" d="M203,29.1h0a.94.94,0,0,0,.9-.5l1-1.8a.84.84,0,0,0-.5-1.2.6.6,0,0,0-.4-.1h0a1.05,1.05,0,0,0-.9.5l-1,1.8a.79.79,0,0,0,.5,1.2C202.7,29,202.9,29.1,203,29.1Z" transform="translate(0 -0.04)"/><path class="cls-4" d="M233.2,2.6A8.19,8.19,0,0,0,226.1.1a9.19,9.19,0,0,0-5.5,2.6,124.93,124.93,0,0,0-13.3,16.7.92.92,0,0,0,.4,1.3.9.9,0,0,0,.5.1h0a1.27,1.27,0,0,0,.9-.4A144.57,144.57,0,0,1,222.3,3.9,6.29,6.29,0,0,1,226.2,2a6.23,6.23,0,0,1,5.4,1.8c21.7,23.2,33.6,51.9,33.7,81.5v65.1c0,7.5-7.2,13.6-16.1,13.6H204.9c-8.9,0-16.1-6.1-16.1-13.6h0V85.1a112.66,112.66,0,0,1,11.8-50,.89.89,0,0,0-.6-1.2.6.6,0,0,0-.4-.1h0a1.33,1.33,0,0,0-1,.6A114.56,114.56,0,0,0,186.7,85v65.1c0,8.5,8.1,15.4,18.2,15.4h44.3c10,0,18.2-6.8,18.2-15.4h0v-65C267.2,55.2,255.2,26.1,233.2,2.6Z" transform="translate(0 -0.04)"/><path class="cls-4" d="M177,119.4a1.2,1.2,0,0,0,.9,2.1h0l8.7-7.9v34.8H159.4a4.25,4.25,0,0,1-4.3-4.2,4.31,4.31,0,0,1,1.4-3.2l7.6-6.9a1.05,1.05,0,0,0-.7-1.8h0a.91.91,0,0,0-.7.3l-7.5,6.7a6.67,6.67,0,0,0-1.8,7.2,6.16,6.16,0,0,0,6,4.1h29.4V108.8Z" transform="translate(0 -0.04)"/><path class="cls-4" d="M169.9,128.5h0a.91.91,0,0,0,.7-.3l1.1-1a1.05,1.05,0,0,0-.7-1.8h0a.91.91,0,0,0-.7.3l-1.1,1a1.09,1.09,0,0,0,0,1.5.78.78,0,0,0,.7.3Z" transform="translate(0 -0.04)"/><path class="cls-4" d="M247.1,198.1a20.67,20.67,0,0,0-40.2-6.7,1.11,1.11,0,0,0,.6,1.4c.1,0,.2.1.4.1h0a1,1,0,0,0,1-.7,18.53,18.53,0,0,1,35,12.2,16.36,16.36,0,0,1-3.2,5.6h0a21.83,21.83,0,0,1-2.1,2.2l-12.1,12.3-12.7-12.9-.5-.5a18.37,18.37,0,0,1-5.2-10.7,1.06,1.06,0,0,0-1-.9H207a1,1,0,0,0-1,1v.1a19.73,19.73,0,0,0,4.2,10.1H210l1.8,1.8.7-.7-.6.7,14.6,14.7L240,213.4a27.18,27.18,0,0,0,2.4-2.4h0A19.86,19.86,0,0,0,247.1,198.1Z" transform="translate(0 -0.04)"/><path class="cls-4" d="M227.1,76.6a19.82,19.82,0,0,0-21.5,15,1.11,1.11,0,0,0,.8,1.3h.2a1.08,1.08,0,0,0,1-.8,17.92,17.92,0,1,1-.3,6.7,1.06,1.06,0,0,0-1-.9h0a1.11,1.11,0,0,0-1.1,1.1v.2a19.9,19.9,0,1,0,21.9-22.6Z" transform="translate(0 -0.04)"/></g></g></svg>