<svg id="Layer_1" data-name="Layer 1" xmlns="http://www.w3.org/2000/svg" xmlns:xlink="http://www.w3.org/1999/xlink" viewBox="0 0 541.96 607.48"><defs><style>.cls-1{fill:url(#linear-gradient);}.cls-2{fill:#211c50;}.cls-3{fill:#e4e5ef;}.cls-4{fill:#1e105b;}.cls-5{fill:#fff;}.cls-6{fill:#e4e3ec;}.cls-7{fill:#211c51;}.cls-8{fill:#ffc200;}.cls-9{fill:#ffe000;}.cls-10{fill:#dde0ef;}.cls-11{fill:#00ac00;}.cls-12{fill:#93c54b;}.cls-13{fill:#e45382;}.cls-14{fill:#c8de83;}.cls-15{fill:#f85e5a;}.cls-16{fill:#ffda44;}.cls-17,.cls-20,.cls-21{fill:none;stroke:#211c50;}.cls-17,.cls-21{stroke-miterlimit:10;}.cls-18{fill:#ef6d4d;}.cls-19{fill:#e1c192;}.cls-20{stroke-linejoin:round;}.cls-21{stroke-width:2px;}</style><linearGradient id="linear-gradient" x1="270.98" y1="607.48" x2="270.98" y2="65.52" gradientTransform="translate(-158.57 290.17) rotate(-45)" gradientUnits="userSpaceOnUse"><stop offset="0.5" stop-color="#fff" stop-opacity="0"/><stop offset="0.55" stop-color="#fffffe" stop-opacity="0.07"/><stop offset="0.66" stop-color="#fefffd" stop-opacity="0.26"/><stop offset="0.81" stop-color="#fefffa" stop-opacity="0.56"/><stop offset="0.99" stop-color="#fdfff7" stop-opacity="0.98"/><stop offset="1" stop-color="#fdfff7"/></linearGradient></defs><rect id="glow" class="cls-1" x="70.98" y="136.5" width="400" height="400" rx="28.64" transform="translate(317.31 -93.05) rotate(45)"/><path class="cls-2" d="M473.74,422.71H64.64a2.5,2.5,0,1,1,0-5h409.1a2.5,2.5,0,0,1,0,5Z"/><path class="cls-3" d="M366.14,379.39H185.93a2.71,2.71,0,0,1-2.68-2.68V255.28a2.71,2.71,0,0,1,2.68-2.68H366.14a2.71,2.71,0,0,1,2.69,2.68V376.71a2.61,2.61,0,0,1-2.57,2.68Z"/><path class="cls-4" d="M360.23,380.36H183.37A5.33,5.33,0,0,1,178,375V257a5.34,5.34,0,0,1,5.37-5.37h176.8a5.34,5.34,0,0,1,5.36,5.37V375a5.28,5.28,0,0,1-5.18,5.36C360.29,380.3,360.29,380.36,360.23,380.36ZM183.37,253.57A3.42,3.42,0,0,0,180,257h0V375a3.41,3.41,0,0,0,3.42,3.41h176.8a3.4,3.4,0,0,0,3.41-3.41h0V257a3.41,3.41,0,0,0-3.41-3.42H183.37Z"/><path class="cls-3" d="M317.42,416.77H226.18a2.47,2.47,0,0,1-2.5-2.5V409a2.47,2.47,0,0,1,2.5-2.5h91.24a2.47,2.47,0,0,1,2.5,2.5v5.24a2.57,2.57,0,0,1-2.5,2.56Z"/><path class="cls-4" d="M314.79,417.81h-86a6.16,6.16,0,0,1,0-12.32h86a6.16,6.16,0,1,1,0,12.32Zm-86-10.31a4.15,4.15,0,0,0,0,8.3h86a4.15,4.15,0,1,0,0-8.3Z"/><path class="cls-5" d="M280.21,416.83H263.38a8.35,8.35,0,0,1-8.35-8.29V359a16.6,16.6,0,0,1,16.58-16.59H272A16.61,16.61,0,0,1,288.57,359v49.52a8.41,8.41,0,0,1-8.36,8.35Z"/><path class="cls-4" d="M289.54,417.81H254V359.08a17.75,17.75,0,1,1,35.49,0l.06,58.73Zm-33.54-2h31.53V359.08a15.8,15.8,0,0,0-31.59,0Z"/><path class="cls-6" d="M163.3,403.36a13.58,13.58,0,0,0-11.89,6.95,4.45,4.45,0,0,0,1.77,6,4.5,4.5,0,0,0,2.13.55h16a4.44,4.44,0,0,0,4.45-4.46,4.32,4.32,0,0,0-.54-2.13A13.6,13.6,0,0,0,163.3,403.36Z"/><path class="cls-7" d="M169.28,417.57h-16a4.91,4.91,0,0,1-4.33-2.5,5.06,5.06,0,0,1-.06-5,14.18,14.18,0,0,1,19.33-5.43,14,14,0,0,1,5.43,5.43,5.06,5.06,0,0,1-.06,5A5.24,5.24,0,0,1,169.28,417.57Zm-8-13.6A13.06,13.06,0,0,0,150,410.61a3.68,3.68,0,0,0,.06,3.79,3.86,3.86,0,0,0,3.29,1.89h16a3.84,3.84,0,0,0,3.35-5.68A12.94,12.94,0,0,0,161.29,404Z"/><path class="cls-5" d="M274.05,287.67a9.37,9.37,0,0,0-9.39,4.81,1.7,1.7,0,0,0,.61,2.26h.06a1.74,1.74,0,0,0,.8.18H268a2.14,2.14,0,0,1,2.37,1.95v.07h0a1.93,1.93,0,0,1-1.89,2h-2.31a1.85,1.85,0,0,0-1.77,1.77,1.67,1.67,0,0,0,.18.73,9.54,9.54,0,0,0,16.95-8.78A9.72,9.72,0,0,0,274.05,287.67Z"/><path class="cls-2" d="M270.39,307.43a10.3,10.3,0,0,1-9.14-5.55,2.37,2.37,0,0,1,1-3.3.06.06,0,0,0,.06-.06h0a2.54,2.54,0,0,1,1.16-.24h2.2a1.33,1.33,0,0,0,1.28-1.28h0a1.41,1.41,0,0,0-1.47-1.28h-1.89a2.54,2.54,0,0,1-2.13-1.22,2.33,2.33,0,0,1-.06-2.44,10.16,10.16,0,0,1,10.12-5.25h0a10.34,10.34,0,0,1,9.09,11.41A10.7,10.7,0,0,1,278,304,9.89,9.89,0,0,1,270.39,307.43Zm-6.89-7.63a.83.83,0,0,0-.79.49.85.85,0,0,0-.06.85A8.76,8.76,0,0,0,277,303a8.26,8.26,0,0,0,2.14-6.83,8.79,8.79,0,0,0-16.41-3.29,1,1,0,0,0,0,.85,1.32,1.32,0,0,0,.79.49h1.83a3,3,0,0,1,3.11,2.68h0v.07a2.83,2.83,0,0,1-2.8,2.8Z"/><path class="cls-8" d="M412.74,230.16H394.81a4.69,4.69,0,0,1-4.7-4.64v-.06h0V215a4.69,4.69,0,0,1,4.64-4.7h18a4.69,4.69,0,0,1,4.69,4.64V215h0v10.49A4.82,4.82,0,0,1,412.74,230.16Z"/><polygon class="cls-9" points="392.31 211.13 393.71 210.52 414.02 210.52 415.6 211.43 416.15 212.23 403.71 219.06 391.76 211.68 392.31 211.13"/><path class="cls-7" d="M412.61,230.77H394.87a5.36,5.36,0,0,1-5.37-5.31V215.09a5.36,5.36,0,0,1,5.31-5.36h17.8A5.36,5.36,0,0,1,418,215V225.4a5.36,5.36,0,0,1-5.3,5.37ZM394.87,211a4.14,4.14,0,0,0-4.15,4.08V225.4a4.14,4.14,0,0,0,4.09,4.15h17.8a4.14,4.14,0,0,0,4.15-4.09V215.09a4.14,4.14,0,0,0-4.08-4.14H394.87Z"/><path class="cls-7" d="M403.77,219.79a.45.45,0,0,1-.3-.06l-12-7.14a.63.63,0,0,1,.61-1.1l11.65,7,12.2-7a.63.63,0,0,1,.61,1.1L404,219.73C404,219.73,403.83,219.79,403.77,219.79Z"/><path class="cls-10" d="M356.57,219.73h4.94a.92.92,0,0,0,0-1.83h-4.94a.94.94,0,0,0-.92.91.87.87,0,0,0,.92.92Z"/><path class="cls-10" d="M376.33,219.73h4.94a.92.92,0,0,0,0-1.83h-4.94a.94.94,0,0,0-.92.91.87.87,0,0,0,.92.92Z"/><path class="cls-10" d="M346.75,220.09h.12a31.78,31.78,0,0,1,4.76-.36.92.92,0,0,0,0-1.83h0a28.25,28.25,0,0,0-5.06.42.83.83,0,0,0-.74.92v.06h0v.06A.8.8,0,0,0,346.75,220.09Z"/><path class="cls-10" d="M366.45,219.73h4.94a.92.92,0,0,0,0-1.83h-4.94a.94.94,0,0,0-.92.91.87.87,0,0,0,.92.92Z"/><path class="cls-10" d="M329.43,229a.89.89,0,0,0,.67-.25,22.79,22.79,0,0,1,3.66-3.11.91.91,0,0,0-1.1-1.46h0a32.79,32.79,0,0,0-3.84,3.29.92.92,0,0,0,0,1.22h0A.74.74,0,0,0,329.43,229Z"/><path class="cls-10" d="M337.36,223.2a1.11,1.11,0,0,0,.42-.12,29,29,0,0,1,4.46-1.83.91.91,0,0,0,.55-1.16,1.09,1.09,0,0,0-1.1-.61,34.1,34.1,0,0,0-4.7,2,.89.89,0,0,0-.36,1.21A.72.72,0,0,0,337.36,223.2Z"/><path class="cls-10" d="M320.53,246.32h.12a.87.87,0,0,0,.91-.8,30.56,30.56,0,0,1,1.1-4.63.93.93,0,1,0-1.71-.73h0c0,.06,0,.06-.06.12v.06a34.74,34.74,0,0,0-1.16,4.94A.91.91,0,0,0,320.53,246.32Z"/><path class="cls-10" d="M323.27,236.86a.78.78,0,0,0,1.1-.24.06.06,0,0,1,.06-.06l.06-.06a35.47,35.47,0,0,1,2.5-4.09.91.91,0,1,0-1.46-1.1h0a29.22,29.22,0,0,0-2.63,4.33.87.87,0,0,0,.19,1.16C323.15,236.8,323.21,236.86,323.27,236.86Z"/><path class="cls-10" d="M155.5,225.52a.92.92,0,0,0-1.83,0v4.94a.92.92,0,1,0,1.83,0Z"/><path class="cls-10" d="M154.58,244.43a.93.93,0,0,0-.91.91v4.94a.92.92,0,1,0,1.83,0v-4.94A.93.93,0,0,0,154.58,244.43Z"/><path class="cls-10" d="M155.5,215.64a.92.92,0,0,0-1.83,0v4.94a.92.92,0,1,0,1.83,0Z"/><path class="cls-10" d="M155.5,235.52a.92.92,0,0,0-1.83,0v4.94a.92.92,0,1,0,1.83,0Z"/><path class="cls-10" d="M155.56,265.1a.92.92,0,0,0-1.83.12,23.57,23.57,0,0,0,.85,5.07.92.92,0,0,0,.86.67.32.32,0,0,0,.24-.07.86.86,0,0,0,.61-1.09v-.06A27.73,27.73,0,0,1,155.56,265.1Z"/><path class="cls-10" d="M158.12,274.19a.91.91,0,0,0-1.65.79c0,.06.06.06.06.12a20.09,20.09,0,0,0,2.93,4.21,1,1,0,0,0,.67.31.79.79,0,0,0,.61-.25.93.93,0,0,0,.12-1.28A19.82,19.82,0,0,1,158.12,274.19Z"/><path class="cls-10" d="M168.3,283.82a21.08,21.08,0,0,1-4.08-2.44.92.92,0,0,0-1.1,1.47h0a20.24,20.24,0,0,0,4.39,2.62.8.8,0,0,0,.37.06.86.86,0,0,0,.85-.55.77.77,0,0,0-.36-1.1C168.37,283.82,168.37,283.82,168.3,283.82Z"/><path class="cls-10" d="M154.58,261.14a.94.94,0,0,0,.92-.92v-4.94a.92.92,0,0,0-1.83,0v4.94A.93.93,0,0,0,154.58,261.14Z"/><path class="cls-10" d="M155.5,205.76a.92.92,0,0,0-1.83,0v4.94a.92.92,0,1,0,1.83,0Z"/><path class="cls-5" d="M167.33,179.78a10.56,10.56,0,0,0-2.81.43,11.58,11.58,0,0,0-16-3.23h-.06a14.36,14.36,0,0,0-2.68,2.44,9.35,9.35,0,0,0-3.42-.61,9.82,9.82,0,0,0,0,19.63h25a9.33,9.33,0,0,0,0-18.66Z"/><path class="cls-2" d="M167.33,199.36h-25a10.74,10.74,0,0,1,0-21.47h0a10.79,10.79,0,0,1,3.11.49,12.56,12.56,0,0,1,9.4-4.21,12.71,12.71,0,0,1,10.06,5,11.31,11.31,0,0,1,2.44-.3,10.25,10.25,0,0,1,0,20.49Zm-25-19.64a8.91,8.91,0,0,0,0,17.81h25a8.42,8.42,0,0,0,0-16.83,9.36,9.36,0,0,0-2.56.36l-.67.19-.37-.55a10.86,10.86,0,0,0-15.06-2.87,12.71,12.71,0,0,0-2.32,2.13l-.43.49-.61-.24A11.91,11.91,0,0,0,142.32,179.72Z"/><g id="Layer_3" data-name="Layer 3"><path class="cls-11" d="M415.17,354.85a4.71,4.71,0,0,0-4.69,4.74v.16l.21,5.48L407,362.78a1.65,1.65,0,0,0-2.24.48h0a1.64,1.64,0,0,0,.48,2.24l5.7,3.73.8,18.54h7.14l1-28.07a4.74,4.74,0,0,0-4.63-4.85Z"/><path class="cls-7" d="M419.21,388.19h-7.93l-.8-18.75L405,365.82a2.05,2.05,0,1,1,2.13-3.51.11.11,0,0,1,.11.1l3,2-.21-4.63a5.18,5.18,0,0,1,5-5.38h.11a5,5,0,0,1,3.67,1.54,5.17,5.17,0,0,1,1.44,3.73Zm-7.13-.85h6.28l1-27.64a4,4,0,0,0-1.17-3.09,4.12,4.12,0,0,0-3-1.28,4.27,4.27,0,0,0-4.27,4.26v.21l.27,6.34-4.47-2.93a1.19,1.19,0,1,0-1.34,2l5.86,3.84Z"/><path class="cls-12" d="M431.15,373.86a1.68,1.68,0,0,0-2.29-.26L426,375.89l.32-9.16a4.22,4.22,0,0,0-4-4.37h-.21a4.28,4.28,0,0,0-4.21,4.31v.11l1.07,25.3h6.44l.43-11.88,5.06-4A1.75,1.75,0,0,0,431.15,373.86Z"/><path class="cls-7" d="M425.82,392.4h-7.25l-1.11-25.67a4.63,4.63,0,1,1,9.26-.22v.22L426.4,375l2.19-1.7a2.07,2.07,0,0,1,2.88.32,2.08,2.08,0,0,1-.32,2.87l-4.9,3.84Zm-6.45-.85H425l.42-11.67,5.22-4.1a1.18,1.18,0,0,0,.22-1.65h0a.94.94,0,0,0-.8-.43,1,1,0,0,0-.86.27l-3.62,2.88.38-10.12a3.63,3.63,0,0,0-1.07-2.77,3.73,3.73,0,0,0-2.72-1.18,3.81,3.81,0,0,0-3.78,3.84v.11Z"/><path class="cls-13" d="M435,416.9H408.51V389.15a3.79,3.79,0,0,1,3.78-3.78h18.86a3.8,3.8,0,0,1,3.78,3.78L435,416.9Z"/><path class="cls-7" d="M432.69,417.7h-28V389.05a4.42,4.42,0,0,1,4.42-4.43h19.13a4.42,4.42,0,0,1,4.42,4.43h0l.05,28.65Zm-26.47-1.54h24.93V389.05a2.87,2.87,0,0,0-2.88-2.88H409.15a2.87,2.87,0,0,0-2.88,2.88h0l0,27.11Z"/><path class="cls-14" d="M422.3,397.52h-.37a7.39,7.39,0,0,0-7.3,6.33H415A7.47,7.47,0,0,0,422.3,397.52Z"/><path class="cls-7" d="M415,404.33h-.32l-.7-.05.11-.53a8,8,0,0,1,7.83-6.77h.32l.69.06-.1.53A7.91,7.91,0,0,1,415,404.33Zm5.7-6.23a7,7,0,0,0-5.28,4.42.55.55,0,0,0,.32.69c.05,0,.16.06.27,0a6.9,6.9,0,0,0,5.38-4.31.64.64,0,0,0-.38-.8Z"/></g><g id="Layer_3-2" data-name="Layer 3-2"><path class="cls-15" d="M120.23,417.28H92V389.9a3.43,3.43,0,0,1,3.41-3.41h21.47a3.43,3.43,0,0,1,3.41,3.41l0,27.38Z"/><path class="cls-7" d="M118.47,418.08H88.69V389.79a4,4,0,0,1,4-4.05h21.68a4,4,0,0,1,4,4.05h0v28.29Zm-28.29-1.55h26.74V389.79a2.5,2.5,0,0,0-2.5-2.5H92.74a2.49,2.49,0,0,0-2.5,2.5h0l-.06,26.74Z"/><path class="cls-15" d="M118.2,392.14v3.19a7.19,7.19,0,0,1,0,14.38h0v3.2a10.39,10.39,0,1,0,0-20.77Z"/><path class="cls-7" d="M117.67,413.76h-.75V409h.75a6.45,6.45,0,0,0,0-12.89h-.75v-4.74h.75a11.19,11.19,0,0,1,0,22.37Zm.8-3.25v1.65a9.59,9.59,0,1,0,0-19.17h0v1.65a7.93,7.93,0,0,1,7.19,7.94,8.14,8.14,0,0,1-7.19,7.93Z"/></g><path class="cls-10" d="M96.63,380a.36.36,0,0,1-.22-.05.6.6,0,0,1-.42-.75h0a.64.64,0,0,1,.64-.47,3.47,3.47,0,0,0,.85-1.55,6,6,0,0,0-1.39-5.33c-3.51-4.52,0-9.16,0-9.21a.61.61,0,0,1,.86-.11.6.6,0,0,1,.1.85h0c-.1.16-2.93,4,0,7.73,2.61,3.35,1.81,6.5,1,7.88C97.53,379.72,97.05,380,96.63,380Z"/><path class="cls-10" d="M109.78,374.88h.16a.5.5,0,0,0,.38-.59h0a.54.54,0,0,0-.54-.37,2.37,2.37,0,0,1-.69-1.28,4.86,4.86,0,0,1,1.12-4.37c2.88-3.73.05-7.56,0-7.62a.5.5,0,0,0-.8.59h0c.11.16,2.4,3.3,0,6.39-2.13,2.77-1.49,5.38-.74,6.5A1.41,1.41,0,0,0,109.78,374.88Z"/><path class="cls-10" d="M104.67,382.49h-.21a.57.57,0,0,1-.43-.69h0a.57.57,0,0,1,.59-.42,2.69,2.69,0,0,0,.8-1.44,5.72,5.72,0,0,0-1.23-4.85c-3.19-4.1,0-8.36,0-8.42a.53.53,0,0,1,.75-.16h0l0,.06a.58.58,0,0,1,.11.8c-.11.16-2.67,3.62,0,7,2.39,3,1.65,6,.85,7.19C105.52,382.17,105.1,382.49,104.67,382.49Z"/><path class="cls-16" d="M264.36,84.27a9.23,9.23,0,0,0,18.46,0"/><path class="cls-17" d="M261.86,84.27a9.23,9.23,0,0,0,18.46,0"/><path class="cls-18" d="M306.87,84.27H239.16a33.85,33.85,0,0,1,30.78-33.72V44.26h6.15v6.29A33.86,33.86,0,0,1,306.87,84.27Z"/><path class="cls-2" d="M274,44.26v6.29a33.85,33.85,0,0,1,30.77,33.72H237a33.86,33.86,0,0,1,30.78-33.72V44.26H274M274,42h-6.16a2.31,2.31,0,0,0-2.31,2.31v4.25a36.16,36.16,0,0,0-30.77,35.76,2.31,2.31,0,0,0,2.3,2.31h67.71a2.31,2.31,0,0,0,2.31-2.31h0a36.16,36.16,0,0,0-30.78-35.76V44.26A2.3,2.3,0,0,0,274,42Z"/><path class="cls-2" d="M250.7,78.11H243c-.85,0-1.54.48-1.54,1.06s.69,1.06,1.54,1.06h7.69c.85,0,1.54-.47,1.54-1.06S251.55,78.11,250.7,78.11Z"/><path class="cls-2" d="M256.86,78.11h-1.54c-.85,0-1.54.48-1.54,1.06s.69,1.06,1.54,1.06h1.54c.85,0,1.54-.47,1.54-1.06S257.71,78.11,256.86,78.11Z"/><rect class="cls-19" x="253.51" y="0.5" width="39.15" height="9.79"/><rect class="cls-20" x="251.07" y="0.5" width="39.15" height="9.79"/><line class="cls-21" x1="270.9" y1="10.28" x2="270.9" y2="43.57"/>
<style>
@keyframes flickerAnimation {
    0%   { opacity:0; }
    2%  { opacity:1; }
    8%   { opacity:0; }
    10%  { opacity:1; }
    11%  { opacity:0; }
    11.5%  { opacity:1; }
    100% { opacity:1; }
  }
 #glow {
      animation: flickerAnimation 5s infinite;
      animation-delay: 1s
  }
  </style>
</svg>