<svg id="Layer_1" data-name="Layer 1" xmlns="http://www.w3.org/2000/svg" viewBox="0 0 755.82 327.16"><defs><style>.cls-1{fill:#e1c192;}.cls-2{fill:#d9b281;}.cls-3{fill:#cea169;}.cls-4,.cls-8{fill:#f7cead;}.cls-10,.cls-4,.cls-8{stroke:#222;}.cls-10,.cls-25,.cls-4,.cls-6,.cls-7,.cls-8{stroke-miterlimit:10;}.cls-10,.cls-4,.cls-6,.cls-7,.cls-8,.cls-9{stroke-width:2px;}.cls-10,.cls-4{fill-rule:evenodd;}.cls-25,.cls-5,.cls-7{fill:none;}.cls-6{fill:#92c54a;}.cls-6,.cls-7,.cls-9{stroke:#201a51;}.cls-9{fill:#e0e1eb;stroke-linecap:round;stroke-linejoin:round;}.cls-10{fill:#201a51;}.cls-11{fill:#99a2b9;}.cls-12{fill:#211c50;}.cls-13{fill:#b7c0d7;}.cls-14{fill:#fdaf42;}.cls-15{fill:#212a41;}.cls-16{fill:#ffca4d;}.cls-17{fill:#db8e11;}.cls-18{fill:#fff;}.cls-19{fill:#f85e5a;}.cls-20{fill:#211c51;}.cls-21{fill:#e4e3ec;}.cls-22{fill:#e2e2e2;}.cls-23{fill:#f23853;}.cls-24{fill:#ff617c;}.cls-25{stroke:#211c50;}</style></defs><rect class="cls-1" x="9.94" y="261.36" width="737.88" height="65.8" rx="2"/><rect id="Rounded_Rectangle_1" data-name="Rounded Rectangle 1" class="cls-2" x="86.2" y="278.6" width="228.13" height="8.92" rx="1.11"/><rect id="Rounded_Rectangle_1_copy" data-name="Rounded Rectangle 1 copy" class="cls-2" x="324.74" y="278.6" width="98.83" height="8.92" rx="1.11"/><rect id="Rounded_Rectangle_1_copy_2" data-name="Rounded Rectangle 1 copy 2" class="cls-2" x="610.1" y="278.6" width="98.84" height="8.92" rx="1.11"/><rect class="cls-3" x="9.94" y="260.81" width="737.88" height="5.68"/><rect class="cls-2" y="247.08" width="755.82" height="14.57" rx="2"/><path class="cls-4" d="M488.05,45.36l4.25-5.77,1-16.86a3,3,0,0,1,2.7-2.81,2.25,2.25,0,0,1,2.48,2v4.44l10.67-11.42a5,5,0,0,1,6.7-.56l11.61,8.91a5,5,0,0,1,.92,7h0l-14.21,18.2a9.91,9.91,0,0,1-4.85,3.37l-.71.23-4.08,4.54Z"/><path class="cls-4" d="M283.47,45.36l-4.26-5.77-1-16.86a3,3,0,0,0-2.65-2.81A2.2,2.2,0,0,0,273,21.71a3.11,3.11,0,0,0,0,.43V26.3L262.35,14.88a5,5,0,0,0-6.69-.56l-11.61,8.91a5,5,0,0,0-.93,7h0l14.21,18.2a9.94,9.94,0,0,0,4.84,3.37l.72.23L267,56.62Z"/><polygon class="cls-5" points="411.05 141.12 486.75 39.56 511.44 57.32 438.62 160.5 411.05 141.12"/><polygon class="cls-6" points="411.05 141.12 486.75 39.56 511.44 57.32 438.62 160.5 411.05 141.12"/><polygon class="cls-5" points="361.44 141.12 285.74 39.56 261.05 57.32 333.87 160.5 361.44 141.12"/><polygon class="cls-6" points="361.44 141.12 285.74 39.56 261.05 57.32 333.88 160.5 361.44 141.12"/><path class="cls-5" d="M371.05,115.56h31a40,40,0,0,1,40,40h0v91h-111v-91a40,40,0,0,1,40-40Z"/><path class="cls-6" d="M371.05,115.56h31a40,40,0,0,1,40,40h0v91h-111v-91a40,40,0,0,1,40-40Z"/><rect class="cls-5" x="378.05" y="107.56" width="17" height="20" rx="8"/><rect class="cls-7" x="378.05" y="107.56" width="17" height="20" rx="8"/><circle class="cls-5" cx="346.05" cy="69.56" r="9"/><circle class="cls-8" cx="346.05" cy="69.56" r="9"/><circle class="cls-5" cx="427.05" cy="69.56" r="9"/><circle class="cls-8" cx="427.05" cy="69.56" r="9"/><path class="cls-4" d="M386.43,11.36h0a42.5,42.5,0,0,1,42.5,42.5v19a42.5,42.5,0,0,1-85,0v-19A42.5,42.5,0,0,1,386.43,11.36Z"/><rect class="cls-5" x="309.05" y="107.56" width="154" height="107" rx="2"/><rect class="cls-9" x="309.05" y="107.56" width="154" height="107" rx="2"/><path class="cls-5" d="M386.05,183.56h0a14,14,0,0,1,14,14h0v49h-28v-49a14,14,0,0,1,14-14Z"/><path class="cls-9" d="M386.05,183.56h0a14,14,0,0,1,14,14h0v49h-28v-49a14,14,0,0,1,14-14Z"/><path class="cls-5" d="M352.55,235.56h67a5.5,5.5,0,0,1,0,11h-67a5.5,5.5,0,0,1,0-11Z"/><path class="cls-9" d="M352.55,235.56h67a5.5,5.5,0,0,1,0,11h-67a5.5,5.5,0,0,1,0-11Z"/><path class="cls-10" d="M343.27,59.52,354.9,44.9l20.15,12.76-3-11.36,32.5,12.28-2.34-10,30.08,10s3.54-36.78-21.05-45.29l9.38-3.84S379.68-13.89,355.05,17l-4.48-5.6.83,10-8.94-.81,4.8,4.7s-15,3.63-11.93,20.48L339,42.11S338.51,52.68,343.27,59.52Z"/><path class="cls-11" d="M181,246.66H91.69a2.35,2.35,0,0,1-2.35-2.35h0V157.38h94v86.93A2.35,2.35,0,0,1,181,246.66Z"/><path class="cls-12" d="M177.15,247.84H87.87a3.52,3.52,0,0,1-3.52-3.52h0V157.38a1.17,1.17,0,0,1,1.17-1.17h94a1.18,1.18,0,0,1,1.18,1.16h0v86.93a3.53,3.53,0,0,1-3.53,3.53ZM86.7,158.56v85.75a1.16,1.16,0,0,0,1.16,1.18h89.29a1.18,1.18,0,0,0,1.18-1.18V158.56Z"/><path class="cls-13" d="M213.57,246.66H124.29a2.35,2.35,0,0,1-2.35-2.35h0V157.38h94v86.93a2.35,2.35,0,0,1-2.35,2.35Z"/><path class="cls-12" d="M210.05,247.84H120.76a3.52,3.52,0,0,1-3.52-3.53h0V157.38a1.17,1.17,0,0,1,1.17-1.17h94a1.17,1.17,0,0,1,1.17,1.17v86.93a3.51,3.51,0,0,1-3.51,3.53h0Zm-90.46-89.28v85.75a1.17,1.17,0,0,0,1.17,1.18h89.29a1.17,1.17,0,0,0,1.17-1.17h0V158.56Z"/><path class="cls-13" d="M167.38,154.09l-90.86,24a2.35,2.35,0,0,1-2.87-1.67l-4.81-18.13a2.36,2.36,0,0,1,1.67-2.87l90.86-24a2.35,2.35,0,0,1,2.87,1.66h0l4.81,18.17A2.36,2.36,0,0,1,167.38,154.09Z"/><path class="cls-12" d="M168.14,155.11l-90.86,24A3.51,3.51,0,0,1,73,176.62h0l-4.8-18.17a3.52,3.52,0,0,1,2.49-4.3h0l90.86-24a3.52,3.52,0,0,1,4.31,2.5h0l4.81,18.17A3.54,3.54,0,0,1,168.14,155.11Zm-96.87,1.32a1.18,1.18,0,0,0-.83,1.44L75.25,176a1.16,1.16,0,0,0,1.43.83l90.86-24a1.16,1.16,0,0,0,.83-1.43h0l-4.8-18.17a1.19,1.19,0,0,0-1.44-.84Z"/><path class="cls-14" d="M171.06,177.79l6.05,12.9a2.33,2.33,0,0,0,1.76,1.32l13.73,2.1a2.35,2.35,0,0,1,2,2.64v0a2.21,2.21,0,0,1-.64,1.28L183.9,208.4a2.35,2.35,0,0,0-.64,2l2.35,14.45a2.35,2.35,0,0,1-1.94,2.7,2.27,2.27,0,0,1-1.51-.26l-12-6.67a2.35,2.35,0,0,0-2.27,0l-12,6.67a2.36,2.36,0,0,1-3.46-2.44l2.35-14.45a2.32,2.32,0,0,0-.64-2L144,198.07a2.33,2.33,0,0,1,0-3.3v0a2.33,2.33,0,0,1,1.29-.64L159,192a2.33,2.33,0,0,0,1.76-1.32l6.06-12.9a2.36,2.36,0,0,1,3.13-1.12h0a2.37,2.37,0,0,1,1.11,1.12Z"/><path class="cls-15" d="M179.74,228.78a3.32,3.32,0,0,1-1.71-.45l-12-6.66a1.16,1.16,0,0,0-1.14,0l-12,6.66a3.52,3.52,0,0,1-5.18-3.65L150,210.23a1.17,1.17,0,0,0-.32-1l-10.1-10.33a3.53,3.53,0,0,1,0-5h0a3.68,3.68,0,0,1,1.93-1l13.72-2.08a1.17,1.17,0,0,0,.89-.66l6-12.9a3.52,3.52,0,0,1,4.68-1.69h0a3.6,3.6,0,0,1,1.69,1.69l6,12.9a1.19,1.19,0,0,0,.88.66l13.73,2.1a3.53,3.53,0,0,1,2.95,4,3.47,3.47,0,0,1-.95,1.92l-10.08,10.33a1.17,1.17,0,0,0-.32,1l2.35,14.45a3.52,3.52,0,0,1-2.88,4.06h0a2.32,2.32,0,0,1-.59.05Zm-14.33-51.17a1.21,1.21,0,0,0-1.07.68l-6.05,12.89a3.54,3.54,0,0,1-2.66,2l-13.72,2.1a1.16,1.16,0,0,0-1,1.3v0a1.15,1.15,0,0,0,.32.64l10.07,10.33a3.52,3.52,0,0,1,1,3L150,225.05a1.17,1.17,0,0,0,1,1.34h0a1.07,1.07,0,0,0,.76-.13l12-6.66a3.56,3.56,0,0,1,3.41,0l12,6.66a1.17,1.17,0,0,0,1.73-1.21l-2.35-14.46a3.58,3.58,0,0,1,1-3l10.08-10.33a1.19,1.19,0,0,0,0-1.66,1.18,1.18,0,0,0-.66-.32l-13.72-2.1a3.46,3.46,0,0,1-2.66-2l-6-12.89a1.18,1.18,0,0,0-1.07-.68Z"/><path class="cls-16" d="M147,199.24a1.18,1.18,0,0,1-.17-2.34l9.2-1.4a5.85,5.85,0,0,0,4.43-3.32l3.93-8.37a1.18,1.18,0,0,1,2.13,1l-3.93,8.37a8.19,8.19,0,0,1-6.2,4.64l-9.2,1.4H147Z"/><path class="cls-17" d="M176.63,222a1.09,1.09,0,0,1-.56-.15l-7.82-4.32a1.16,1.16,0,0,1-.53-1.55v0a1.19,1.19,0,0,1,1.57-.53h0l.08.05,5.72,3.15-1.19-7.3a1.16,1.16,0,0,1,1-1.33h0a1.18,1.18,0,0,1,1.35,1h0l1.58,9.69a1.18,1.18,0,0,1-1,1.35h-.23Z"/><path class="cls-11" d="M674.6,246H611.05a1.67,1.67,0,0,1-1.67-1.67V182.45h66.89v61.88A1.67,1.67,0,0,1,674.6,246Z"/><path class="cls-12" d="M671.88,246.84H608.33a2.51,2.51,0,0,1-2.51-2.51h0V182.45a.84.84,0,0,1,.84-.83h66.9a.83.83,0,0,1,.83.83h0v61.88a2.51,2.51,0,0,1-2.51,2.51ZM607.5,183.29v61a.84.84,0,0,0,.83.84h63.55a.84.84,0,0,0,.84-.84h0v-61Z"/><path class="cls-11" d="M676.07,182.45h-66.9a1.67,1.67,0,0,1-1.67-1.67V167.4a1.67,1.67,0,0,1,1.67-1.67h66.9a1.67,1.67,0,0,1,1.67,1.67v13.38A1.67,1.67,0,0,1,676.07,182.45Z"/><path class="cls-12" d="M673.56,183.29h-66.9a2.51,2.51,0,0,1-2.51-2.51h0V167.4a2.51,2.51,0,0,1,2.51-2.51h66.9a2.51,2.51,0,0,1,2.51,2.51h0v13.38A2.52,2.52,0,0,1,673.56,183.29Zm-66.9-16.73a.86.86,0,0,0-.84.84v13.38a.85.85,0,0,0,.84.84h66.9a.84.84,0,0,0,.83-.84V167.4a.84.84,0,0,0-.83-.84Z"/><path class="cls-13" d="M697.81,246H634.25a1.67,1.67,0,0,1-1.67-1.67V182.45h66.9v61.88A1.67,1.67,0,0,1,697.81,246Z"/><path class="cls-12" d="M695.3,246.84H631.75a2.51,2.51,0,0,1-2.51-2.51h0V182.45a.83.83,0,0,1,.83-.83H697a.84.84,0,0,1,.84.83v61.88a2.51,2.51,0,0,1-2.51,2.51h0Zm-64.39-63.55v61a.84.84,0,0,0,.84.84H695.3a.84.84,0,0,0,.83-.84v-61Z"/><path class="cls-13" d="M699.48,182.45h-66.9a1.67,1.67,0,0,1-1.67-1.67V167.4a1.67,1.67,0,0,1,1.67-1.67h66.9a1.67,1.67,0,0,1,1.67,1.67v13.38A1.67,1.67,0,0,1,699.48,182.45Z"/><path class="cls-12" d="M697,183.29H630.1a2.5,2.5,0,0,1-2.5-2.51V167.4a2.5,2.5,0,0,1,2.49-2.51H697a2.51,2.51,0,0,1,2.51,2.51h0v13.38a2.51,2.51,0,0,1-2.51,2.51Zm-66.9-16.73a.84.84,0,0,0-.83.84v13.38a.84.84,0,0,0,.83.84H697a.85.85,0,0,0,.84-.84V167.4a.86.86,0,0,0-.84-.84Z"/><path class="cls-18" d="M692.37,190.81H675.65V170.74l8.36-6.69,8.36,6.69Z"/><path class="cls-12" d="M690.28,191.65H673.56a.83.83,0,0,1-.84-.82V170.74a.88.88,0,0,1,.31-.65l8.37-6.69a.84.84,0,0,1,1,0l8.36,6.69a.84.84,0,0,1,.32.65v20.07A.84.84,0,0,1,690.28,191.65ZM674.39,190h15.05V171.15l-7.52-6-7.53,6Z"/><path class="cls-12" d="M681.92,169.91a.85.85,0,0,1-.84-.84v-6.69a5.85,5.85,0,0,0-11.7,0v3.35a.84.84,0,1,1-1.68,0v-3.35a7.53,7.53,0,0,1,15,0v6.69A.83.83,0,0,1,681.92,169.91Z"/><path class="cls-12" d="M685.26,186.63h-6.69a.83.83,0,0,1-.74-.92.85.85,0,0,1,.74-.75h6.69a.85.85,0,0,1,.93.75.84.84,0,0,1-.75.92Z"/><circle class="cls-14" cx="681.92" cy="176.6" r="3.34"/><path class="cls-12" d="M681.92,180.78a4.18,4.18,0,1,1,4.18-4.18h0A4.18,4.18,0,0,1,681.92,180.78Zm0-6.69a2.51,2.51,0,1,0,2.51,2.51,2.51,2.51,0,0,0-2.51-2.51Z"/><g id="Layer_3" data-name="Layer 3"><path class="cls-19" d="M536.72,246.76H500.37V211.51a4.43,4.43,0,0,1,4.39-4.39H532.4a4.42,4.42,0,0,1,4.39,4.39v35.25Z"/><path class="cls-20" d="M534.46,247.79H496.12V211.37a5.21,5.21,0,0,1,5.21-5.21h27.92a5.21,5.21,0,0,1,5.21,5.21h0Zm-36.42-2h34.43V211.37a3.23,3.23,0,0,0-3.21-3.22H501.33a3.2,3.2,0,0,0-3.22,3.18v0h0Z"/><path class="cls-19" d="M534.12,214.39v4.11a9.26,9.26,0,0,1,0,18.52v4.12a13.38,13.38,0,0,0,0-26.75Z"/><path class="cls-20" d="M533.43,242.24h-1v-6.11h1a8.3,8.3,0,1,0,0-16.6h-1v-6.1h1a14.41,14.41,0,0,1,0,28.81Zm1-4.19v2.13a12.38,12.38,0,0,0,0-24.69v2.12a10.27,10.27,0,0,1,0,20.44Z"/><path class="cls-21" d="M268.21,233.39a13.48,13.48,0,0,0-11.8,6.93,4.43,4.43,0,0,0,1.7,6,4.33,4.33,0,0,0,2.14.56h15.91a4.4,4.4,0,0,0,4.41-4.4,4.49,4.49,0,0,0-.57-2.18A13.45,13.45,0,0,0,268.21,233.39Z"/><path class="cls-20" d="M274.17,247.52H258.26a5,5,0,0,1-4.39-7.48,14.12,14.12,0,0,1,24.69,0,5,5,0,0,1-4.39,7.48ZM266.22,234a13,13,0,0,0-11.32,6.65,3.72,3.72,0,0,0,.07,3.77,3.83,3.83,0,0,0,3.29,1.92h15.91a3.71,3.71,0,0,0,3.3-1.92,3.91,3.91,0,0,0,.07-3.77A13,13,0,0,0,266.22,234Z"/></g><path class="cls-22" d="M506.2,201.84a.37.37,0,0,1-.27-.07.76.76,0,0,1-.57-.92.24.24,0,0,1,0-.08h0a.85.85,0,0,1,.82-.62,4.25,4.25,0,0,0,1.1-2,7.73,7.73,0,0,0-1.78-6.86c-4.53-5.83-.07-11.79,0-11.86a.78.78,0,1,1,1.23,1h0c-.14.21-3.77,5.14,0,9.94,3.36,4.33,2.33,8.37,1.23,10.16C507.37,201.43,506.75,201.84,506.2,201.84Z"/><path class="cls-22" d="M523.14,195.19h.21a.64.64,0,0,0,.48-.76h0a.71.71,0,0,0-.69-.48,2.89,2.89,0,0,1-.89-1.65,6.3,6.3,0,0,1,1.44-5.62c3.7-4.8.07-9.74,0-9.81a.65.65,0,0,0-.89-.13.64.64,0,0,0-.15.88h0c.14.2,3.09,4.25,0,8.23-2.74,3.56-1.92,6.93-1,8.37A1.87,1.87,0,0,0,523.14,195.19Z"/><path class="cls-22" d="M516.56,205h-.28a.74.74,0,0,1-.55-.88h0a.74.74,0,0,1,.76-.55,3.55,3.55,0,0,0,1-1.85,7.29,7.29,0,0,0-1.58-6.24c-4.11-5.28-.07-10.77,0-10.84a.7.7,0,0,1,1-.19l.08.06a.73.73,0,0,1,.14,1c-.14.21-3.43,4.67,0,9.06,3.08,3.91,2.12,7.68,1.09,9.26C517.65,204.58,517.11,205,516.56,205Z"/><path class="cls-12" d="M409.16,66.39a12,12,0,0,0-9-1.45,12.46,12.46,0,0,1,2.48-1.22,12.79,12.79,0,0,1,5.53-.7.54.54,0,0,0,.14-1.08A12.15,12.15,0,0,0,397,66.06a.48.48,0,0,0-.11.37s0,0,0,.06h0a.54.54,0,0,0,.76.51,12.81,12.81,0,0,1,11,.33.54.54,0,0,0,.53-.94Z"/><path class="cls-12" d="M362.94,66.39a12,12,0,0,1,9-1.45,12.46,12.46,0,0,0-2.48-1.22A12.79,12.79,0,0,0,364,63a.54.54,0,0,1-.14-1.08,12.15,12.15,0,0,1,11.25,4.12.48.48,0,0,1,.11.37s0,0,0,.06h0a.54.54,0,0,1-.76.51,12.81,12.81,0,0,0-11,.33.54.54,0,0,1-.53-.94Z"/><path class="cls-12" d="M387.08,94.08a10.8,10.8,0,0,1,9,4.76,15.8,15.8,0,0,0,6.9-13.06v0a5.21,5.21,0,0,0-5.25-5.1H376.47a5.25,5.25,0,0,0-5.25,5.27,15.86,15.86,0,0,0,6.91,12.93A10.79,10.79,0,0,1,387.08,94.08Z"/><path class="cls-23" d="M396,98.84a10.81,10.81,0,0,0-17.91,0,15.67,15.67,0,0,0,17.91,0Z"/><rect class="cls-24" x="647.55" y="216.28" width="16.9" height="16.9" rx="1.23"/><rect class="cls-25" x="645.94" y="216.28" width="16.9" height="16.9" rx="1.23"/></svg>