<svg id="Layer_1" data-name="Layer 1" xmlns="http://www.w3.org/2000/svg" viewBox="0 0 306.92 295.01"><defs><style>.cls-1,.cls-2{fill:#b0dbff;}.cls-1{opacity:0.2;}.cls-3{fill:#211c50;}.cls-4{fill:#fff;}.cls-5{fill:#6ab4fc;}.cls-6{fill:#b86afc;}.cls-7{fill:#fdaf42;}.cls-8{fill:#ededed;}</style></defs><path class="cls-1" d="M306.83,111.39c-1-13.92-10.73-25.64-24-29.95-18.81-6.08-55.16-21.3-64.4-50C207.88-1.24,107.48-19,59.33,31.91c-13.26,14-20.55,32.59-21.4,51.87-.63,14.54-3.83,38.08-17,52.44C7,151.32-.93,171,.09,191.49c1.7,34,18.14,74.78,87.54,73.26A148.39,148.39,0,0,1,164,284l2.34,1.34c53,30.73,117.69-16.73,103.79-76.39-.29-1.27-.61-2.56-1-3.86a81.26,81.26,0,0,1-2.7-18.46c-.27-10.23,1.44-22.95,10.52-28a38.94,38.94,0,0,0,5.15-3.27C289.85,149.44,308.31,132.76,306.83,111.39Z"/><circle class="cls-1" cx="288.9" cy="183.22" r="13.49"/><rect class="cls-2" x="19.9" y="228.29" width="8.43" height="56.94" rx="3.11"/><rect class="cls-2" x="282.16" y="228.18" width="8.43" height="56.94" rx="3.11"/><rect class="cls-2" x="252.11" y="227.9" width="8.43" height="32.41" rx="3.11"/><rect class="cls-2" x="60.71" y="256.51" width="8.43" height="8.43" rx="3.11"/><rect class="cls-2" x="60.71" y="232.81" width="8.43" height="18.81" rx="3.11"/><path class="cls-2" d="M53.13,60.07H253.78a4.63,4.63,0,0,1,4.63,4.63V195.61a0,0,0,0,1,0,0H48.5a0,0,0,0,1,0,0V64.7A4.63,4.63,0,0,1,53.13,60.07Z"/><rect class="cls-3" x="46.87" y="87.43" width="3.26" height="7.7" rx="1.63"/><path class="cls-3" d="M253.38,58.44H53.54a6.67,6.67,0,0,0-6.67,6.66V78.82a1.63,1.63,0,0,0,1.63,1.63h0a1.63,1.63,0,0,0,1.64-1.63V65.1a3.4,3.4,0,0,1,3.4-3.4H253.38a3.4,3.4,0,0,1,3.4,3.4V194H50.14V103.74a1.63,1.63,0,0,0-1.64-1.63h0a1.63,1.63,0,0,0-1.63,1.63v93.5H260V65.1A6.66,6.66,0,0,0,253.38,58.44Z"/><path class="cls-4" d="M59.58,68.39H247.34A4.63,4.63,0,0,1,252,73V195.61a0,0,0,0,1,0,0h-197a0,0,0,0,1,0,0V73A4.63,4.63,0,0,1,59.58,68.39Z"/><path class="cls-5" d="M6.9,195.61H300a0,0,0,0,1,0,0v1.48a17,17,0,0,1-17,17H23.9a17,17,0,0,1-17-17v-1.48a0,0,0,0,1,0,0Z"/><path class="cls-6" d="M132.76,196.7h41.4a0,0,0,0,1,0,0v.61a7,7,0,0,1-7,7h-27.4a7,7,0,0,1-7-7v-.61a0,0,0,0,1,0,0Z"/><path class="cls-3" d="M166.55,205.4H140.37a8.71,8.71,0,0,1-8.7-8.7v-1.09h43.58v1.09A8.71,8.71,0,0,1,166.55,205.4Zm-32.62-7.61a6.54,6.54,0,0,0,6.44,5.43h26.18a6.53,6.53,0,0,0,6.43-5.43Z"/><path class="cls-3" d="M281.53,215.73H25.39A20.14,20.14,0,0,1,5.27,195.61V194H301.64v1.63A20.14,20.14,0,0,1,281.53,215.73ZM8.61,197.24a16.87,16.87,0,0,0,16.78,15.22H281.53a16.87,16.87,0,0,0,16.77-15.22Z"/><path class="cls-3" d="M184.66,110.86a31.2,31.2,0,0,0-62.38.5,5.3,5.3,0,0,0-2.12,4.25v4.78a5.34,5.34,0,0,0,10.68,0v-4.78a5.34,5.34,0,0,0-5.34-5.34,4.53,4.53,0,0,0-.52,0,28.53,28.53,0,0,1,57,0,5.32,5.32,0,0,0-5.08,5.32v4.78a5.34,5.34,0,0,0,4.08,5.19c-.93,4.65-5,17.73-20.91,19.52a2.4,2.4,0,0,0-2-1.12h-3.56a2.39,2.39,0,1,0,0,4.78H158a2.4,2.4,0,0,0,2.27-1.67c17.29-2,21.68-16.63,22.66-21.41a5.35,5.35,0,0,0,4.6-5.29v-4.78A5.34,5.34,0,0,0,184.66,110.86Z"/><rect class="cls-2" x="128.04" y="164.44" width="50.83" height="5.07" rx="2.33"/><rect class="cls-2" x="94.75" y="176.04" width="33.3" height="5.07" rx="2.33"/><rect class="cls-2" x="133.93" y="176.04" width="16.65" height="5.07" rx="2.33"/><rect class="cls-2" x="156.33" y="176.04" width="26.89" height="5.07" rx="2.33"/><rect class="cls-2" x="187.57" y="176.04" width="21.38" height="5.07" rx="2.33"/><circle class="cls-7" cx="254.98" cy="62.43" r="25.01"/><path class="cls-8" d="M251.54,59.16h11.59a2.54,2.54,0,0,1,2.54,2.54V72.92l-3.62-2H251.54A2.54,2.54,0,0,1,249,68.41V61.7A2.54,2.54,0,0,1,251.54,59.16Z"/><path class="cls-4" d="M258.42,54.63h-11.6a2.54,2.54,0,0,0-2.54,2.54V68.4l3.62-2h10.51A2.54,2.54,0,0,0,261,63.87V57.16A2.54,2.54,0,0,0,258.42,54.63Z"/><path class="cls-3" d="M277.2,69.58a23.32,23.32,0,1,1,.86-10.84,1.61,1.61,0,0,0,1.6,1.33h0a1.63,1.63,0,0,0,1.61-1.88,26.63,26.63,0,1,0-.92,12.34,1.65,1.65,0,0,0-1.57-2.13h0A1.68,1.68,0,0,0,277.2,69.58Z"/></svg>